<?xml version="1.0" standalone="no"?>
<!DOCTYPE svg PUBLIC "-//W3C//DTD SVG 20010904//EN"
 "http://www.w3.org/TR/2001/REC-SVG-20010904/DTD/svg10.dtd">
<svg version="1.0" xmlns="http://www.w3.org/2000/svg"
 width="700.000000pt" height="700.000000pt" viewBox="0 0 700.000000 700.000000"
 preserveAspectRatio="xMidYMid meet">
<metadata>
Created by potrace 1.11, written by Peter Selinger 2001-2013
</metadata>
<g transform="translate(0.000000,700.000000) scale(0.100000,-0.100000)"
fill="#000000" stroke="none">
<path d="M5099 6995 c-2 -2 -65 -6 -139 -10 -74 -4 -137 -8 -140 -10 -3 -1
-41 -6 -84 -10 -43 -4 -88 -9 -100 -11 -12 -2 -50 -7 -86 -10 -35 -3 -67 -7
-71 -9 -5 -4 -75 -16 -174 -30 -64 -10 -422 -93 -515 -120 -47 -14 -103 -31
-125 -37 -232 -68 -612 -220 -852 -343 -166 -84 -190 -97 -308 -165 -64 -36
-330 -205 -349 -221 -6 -5 -58 -44 -116 -86 -116 -84 -285 -220 -370 -298
-119 -108 -390 -385 -470 -480 -47 -55 -87 -102 -90 -105 -14 -13 -108 -138
-118 -157 -7 -12 -18 -27 -25 -35 -7 -7 -23 -27 -35 -44 l-22 -32 518 0 c458
0 712 -6 770 -17 11 -2 43 -6 73 -10 30 -4 57 -9 60 -11 4 -2 24 -6 45 -10 66
-10 216 -69 274 -107 73 -47 133 -106 174 -170 35 -54 94 -214 98 -263 2 -16
5 110 8 279 l5 309 340 -2 c187 -1 558 -3 825 -5 1284 -9 2835 -18 2855 -16 6
1 12 18 14 39 2 20 5 53 6 72 15 177 19 280 20 500 0 226 -7 415 -19 520 -3
19 -7 62 -11 95 -3 33 -10 87 -15 120 -5 33 -12 78 -15 100 -3 23 -7 52 -10
65 -3 13 -7 42 -11 64 -3 22 -7 43 -9 46 -2 3 -6 21 -9 40 -13 81 -85 360 -96
373 -6 7 -187 58 -255 71 -11 3 -52 11 -91 20 -79 17 -338 61 -424 71 -30 4
-62 9 -71 10 -9 2 -56 6 -105 10 -48 4 -100 9 -114 11 -32 6 -637 14 -641 9z"/>
<path d="M3459 4132 c-1 -24 -1 -394 0 -414 1 -17 38 -18 583 -18 320 0 583
-1 584 -3 2 -2 -60 -86 -137 -187 -78 -102 -162 -213 -188 -247 -25 -34 -53
-63 -61 -65 -8 -2 -187 -3 -397 -3 -211 1 -383 -2 -384 -5 0 -3 -1 -204 -1
-447 l-1 -442 -273 0 -274 0 -1 632 0 632 -22 -75 c-37 -122 -75 -188 -157
-270 -41 -42 -88 -83 -105 -92 -16 -8 -43 -22 -60 -31 -123 -65 -262 -99 -506
-123 -34 -3 -669 -13 -909 -14 l-46 0 1 -317 c1 -175 -1 -323 -3 -330 -3 -9
-84 -12 -328 -13 l-324 0 0 615 0 615 831 0 c930 0 889 -3 974 72 146 129 110
362 -70 449 l-50 24 -802 1 -801 1 -62 -131 c-154 -324 -249 -600 -346 -998
-8 -33 -14 -62 -29 -143 -8 -44 -19 -102 -25 -130 -11 -62 -16 -95 -30 -215
-6 -52 -13 -111 -15 -130 -27 -225 -27 -768 0 -1033 2 -23 7 -73 10 -112 10
-112 14 -146 40 -355 5 -44 11 -81 20 -130 3 -14 7 -43 11 -65 9 -66 54 -286
71 -347 8 -31 24 -65 35 -74 22 -20 105 -43 288 -79 62 -12 320 -55 365 -60
28 -3 84 -10 125 -15 91 -11 152 -18 245 -25 39 -3 86 -8 105 -10 213 -26 877
-26 1041 -1 13 2 51 7 84 10 193 21 409 58 610 105 282 67 605 174 840 278
115 51 350 167 420 208 33 19 67 38 75 41 31 15 230 140 335 213 364 249 700
555 996 906 245 292 488 663 663 1013 48 95 146 308 146 316 0 3 11 29 23 58
52 116 178 482 202 583 3 11 22 90 44 176 22 85 41 170 44 187 l5 32 -699 0
-699 0 0 -225 0 -225 518 0 c284 0 548 0 586 0 l68 0 -15 -23 c-27 -42 -349
-462 -362 -472 -7 -6 -156 -10 -403 -9 l-392 0 0 -447 0 -448 -274 -1 -275 0
0 867 c0 478 -1 894 -1 925 l0 57 -730 0 c-679 0 -730 -1 -731 -17z"/>
</g>
</svg>
