<?xml version="1.0" encoding="UTF-8" standalone="no"?>
<svg width="32px" height="32px" viewBox="0 0 32 32" version="1.1" xmlns="http://www.w3.org/2000/svg" xmlns:xlink="http://www.w3.org/1999/xlink">
    <!-- Generator: Sketch 48.2 (47327) - http://www.bohemiancoding.com/sketch -->
    <title>logo</title>
    <desc>Created with Sketch.</desc>
    <defs></defs>
    <g id="Page-1" stroke="none" stroke-width="1" fill="none" fill-rule="evenodd">
        <g id="logo" transform="translate(-1.000000, 0.000000)" fill="#F2F2F2" fill-rule="nonzero">
            <path d="M26.005,13.037 L32.407,13.037 C30.112,24.326 20.351,32.931 7.502,31.919 C5.616,31.77 3.78,31.563 2.029,31.097 L1.871,30.94 C1.409,29.209 1.21,27.397 1.07,25.535 C0.731,21.02 1.626,16.898 3.435,13.362 L10.47,13.362 C11.167,13.362 11.737,13.925 11.737,14.613 C11.737,15.301 11.167,15.864 10.47,15.864 L3.066,15.864 L3.066,21.48 L6.045,21.48 L6.045,18.46 L8.725,18.46 C11.486,18.46 13.858,18.191 14.296,15.643 L14.296,21.48 L16.805,21.48 L16.805,17.387 L20.427,17.387 L22.188,15.08 L16.805,15.08 L16.805,13.038 L23.497,13.038 L23.497,21.48 L26.006,21.48 L26.006,17.387 L29.628,17.387 L31.388,15.08 L26.006,15.08 L26.006,13.038 L26.005,13.037 Z M32.099,0.93 C32.671,2.866 33.001,5.09 33.001,7.392 C33.001,7.718 32.994,8.043 32.981,8.367 C32.956,9.005 32.908,9.634 32.838,10.256 L14.4,10.138 L14.4,13.038 C14.157,11.377 13.263,10.511 11.232,10.237 C10.758,10.174 10.209,10.138 9.653,10.138 C9.618,10.138 9.583,10.138 9.548,10.138 L5.149,10.138 C9.406,4.074 16.608,0.269 24.634,0.013 C24.872,0.005 25.151,-1.77635684e-15 25.432,-1.77635684e-15 C27.807,-1.77635684e-15 30.102,0.34 32.272,0.973 L32.099,0.93 Z" id="Shape"></path>
        </g>
    </g>
</svg>